<?xml version="1.0" encoding="UTF-8"?>
<!DOCTYPE svg PUBLIC "-//W3C//DTD SVG 1.1//EN" "http://www.w3.org/Graphics/SVG/1.1/DTD/svg11.dtd">
<!-- Creator: CorelDRAW -->
<svg xmlns="http://www.w3.org/2000/svg" xml:space="preserve" width="2048px" height="2048px" style="shape-rendering:geometricPrecision; text-rendering:geometricPrecision; image-rendering:optimizeQuality; fill-rule:evenodd; clip-rule:evenodd"
viewBox="0 0 2048 2048"
 xmlns:xlink="http://www.w3.org/1999/xlink">
 <defs>
  <style type="text/css">
   <![CDATA[
    .fil2 {fill:none}
    .fil6 {fill:#01579B}
    .fil13 {fill:#212121}
    .fil5 {fill:#424242}
    .fil1 {fill:#4DD0E1}
    .fil8 {fill:#616161}
    .fil0 {fill:#80DEEA}
    .fil10 {fill:#A8A8A8}
    .fil9 {fill:#B0B0B0}
    .fil11 {fill:#BDBDBD}
    .fil4 {fill:#F6C4AA}
    .fil7 {fill:#FFA726}
    .fil3 {fill:#FFDDCC}
    .fil12 {fill:#212121;fill-rule:nonzero}
   ]]>
  </style>
   <clipPath id="id0">
    <path d="M1024 -0.0011811c565.539,0 1024,458.462 1024,1024 0,565.539 -458.462,1024 -1024,1024 -565.539,0 -1024,-458.462 -1024,-1024 0,-565.539 458.462,-1024 1024,-1024z"/>
   </clipPath>
 </defs>
 <g id="Layer_x0020_1">
  <metadata id="CorelCorpID_0Corel-Layer"/>
  <path class="fil0" d="M1024 -0.0011811c565.539,0 1024,458.462 1024,1024 0,565.539 -458.462,1024 -1024,1024 -565.539,0 -1024,-458.462 -1024,-1024 0,-565.539 458.462,-1024 1024,-1024z"/>
  <g style="clip-path:url(#id0)">
   <g id="_289349408">
    <g>
     <polygon id="_2909846881" class="fil1" points="1185.79,882.568 2321.67,2018.45 2320.6,2019.98 2319.4,2021.6 2318.08,2023.28 2316.65,2025.04 2315.1,2026.87 2313.44,2028.76 2311.68,2030.71 2309.82,2032.72 2307.86,2034.78 2305.8,2036.89 2303.66,2039.05 2301.42,2041.25 2299.1,2043.49 2296.7,2045.76 2294.23,2048.07 2291.67,2050.41 2289.05,2052.77 2286.37,2055.16 2283.62,2057.56 2280.81,2059.97 2277.94,2062.4 2275.02,2064.83 2272.05,2067.27 2269.04,2069.71 2265.98,2072.14 2262.89,2074.57 2259.76,2076.98 2256.6,2079.39 2253.41,2081.77 2250.2,2084.13 2246.97,2086.47 2243.71,2088.78 1107.83,952.899 1111.08,950.59 1114.32,948.251 1117.53,945.889 1120.72,943.504 1123.88,941.102 1127.01,938.685 1130.1,936.259 1133.16,933.825 1136.17,931.387 1139.14,928.951 1142.06,926.516 1144.92,924.09 1147.73,921.674 1150.49,919.273 1153.17,916.889 1155.79,914.527 1158.34,912.191 1160.82,909.882 1163.22,907.606 1165.54,905.365 1167.77,903.165 1169.92,901.006 1171.98,898.894 1173.94,896.833 1175.8,894.824 1177.56,892.874 1179.22,890.983 1180.76,889.157 1182.2,887.4 1183.52,885.713 1184.72,884.101 "/>
     <polygon id="_290984832" class="fil1" points="1487.63,1194.82 2623.51,2330.71 2625.07,2332.49 2626.52,2334.35 2627.86,2336.28 2629.09,2338.27 2630.2,2340.32 2631.19,2342.42 2632.04,2344.58 2632.76,2346.78 2633.33,2349.03 2633.76,2351.33 2634.02,2353.66 2634.13,2356.03 2634.07,2358.42 2633.83,2360.85 2633.42,2363.3 1497.54,1227.42 1497.95,1224.97 1498.19,1222.54 1498.25,1220.14 1498.14,1217.78 1497.88,1215.44 1497.45,1213.15 1496.88,1210.9 1496.16,1208.7 1495.31,1206.54 1494.32,1204.43 1493.21,1202.39 1491.98,1200.4 1490.64,1198.47 1489.19,1196.61 "/>
     <polygon id="_290985672" class="fil1" points="1497.54,1227.42 2633.42,2363.3 2633.41,2363.34 2633.41,2363.37 2633.4,2363.4 2633.39,2363.44 2633.39,2363.47 2633.38,2363.5 2633.37,2363.54 2633.37,2363.57 1497.49,1227.69 1497.49,1227.66 1497.5,1227.62 1497.51,1227.59 1497.51,1227.55 1497.52,1227.52 1497.53,1227.49 1497.53,1227.45 "/>
     <polygon id="_290985312" class="fil1" points="940.175,952.902 2076.06,2088.78 2072.8,2086.48 2069.57,2084.14 2066.36,2081.77 2063.17,2079.39 2060.01,2076.99 2056.88,2074.57 2053.78,2072.14 2050.73,2069.71 2047.71,2067.27 2044.74,2064.84 2041.83,2062.4 2038.96,2059.97 2036.15,2057.56 2033.4,2055.16 2030.71,2052.77 2028.09,2050.41 2025.54,2048.07 2023.06,2045.77 2020.66,2043.49 2018.34,2041.25 2016.11,2039.05 880.227,903.165 882.461,905.366 884.781,907.607 887.181,909.883 889.658,912.192 892.208,914.528 894.829,916.89 897.517,919.274 900.268,921.676 903.077,924.092 905.944,926.519 908.864,928.953 911.832,931.39 914.846,933.827 917.901,936.262 920.996,938.689 924.125,941.105 927.287,943.507 930.476,945.891 933.688,948.255 936.923,950.593 "/>
     <polygon id="_290984976" class="fil1" points="1441.87,1488.37 2577.75,2624.25 2577.19,2626.71 2576.58,2629.15 2575.92,2631.56 2575.19,2633.94 2574.41,2636.28 2573.58,2638.58 2572.69,2640.85 2571.74,2643.06 2570.74,2645.23 2569.68,2647.35 2568.56,2649.4 2567.39,2651.4 2566.15,2653.34 2564.87,2655.21 2563.52,2657.01 2562.12,2658.74 2560.66,2660.38 2559.14,2661.95 2557.56,2663.44 2555.93,2664.83 2554.23,2666.14 2552.48,2667.34 2550.67,2668.45 2548.8,2669.46 2546.87,2670.37 2544.89,2671.16 2542.84,2671.84 2540.74,2672.41 2538.57,2672.85 2536.35,2673.18 2534.06,2673.37 2531.72,2673.44 2404.84,2673.44 1268.96,1537.56 1395.84,1537.56 1398.18,1537.49 1400.47,1537.3 1402.69,1536.97 1404.86,1536.53 1406.96,1535.96 1409.01,1535.28 1410.99,1534.48 1412.92,1533.58 1414.79,1532.57 1416.6,1531.46 1418.35,1530.25 1420.04,1528.95 1421.68,1527.55 1423.26,1526.07 1424.77,1524.5 1426.24,1522.85 1427.64,1521.13 1428.98,1519.33 1430.27,1517.46 1431.51,1515.52 1432.68,1513.52 1433.8,1511.46 1434.86,1509.35 1435.86,1507.18 1436.81,1504.96 1437.7,1502.7 1438.53,1500.4 1439.31,1498.05 1440.03,1495.67 1440.7,1493.27 1441.31,1490.83 "/>
     <polygon id="_290961576" class="fil1" points="1268.96,1537.56 2404.84,2673.44 2404.84,2675.7 1268.96,1539.82 "/>
     <polygon id="_243361896" class="fil1" points="779.038,1537.56 1914.92,2673.44 1788.04,2673.44 1785.7,2673.37 1783.41,2673.18 1781.19,2672.85 1779.03,2672.41 1776.92,2671.84 1774.88,2671.16 1772.89,2670.37 1770.96,2669.46 1769.09,2668.45 1767.28,2667.34 1765.53,2666.14 1763.84,2664.83 627.956,1528.95 629.649,1530.25 631.401,1531.46 633.211,1532.57 635.08,1533.58 637.008,1534.48 638.995,1535.28 641.04,1535.96 643.145,1536.53 645.31,1536.97 647.533,1537.3 649.817,1537.49 652.16,1537.56 "/>
     <polygon id="_243361992" class="fil1" points="1406.31,1541.6 2542.19,2677.48 2542.89,2678.38 2543.41,2679.41 2543.74,2680.54 2543.86,2681.76 2543.86,2713.83 2543.74,2715.05 2543.41,2716.18 2542.89,2717.21 2542.19,2718.11 2541.35,2718.85 2540.39,2719.41 2539.33,2719.76 2538.19,2719.88 1776.85,2719.88 1775.72,2719.76 1774.65,2719.41 1773.69,2718.85 637.812,1582.96 638.774,1583.52 639.834,1583.88 640.972,1584 1402.31,1584 1403.45,1583.88 1404.51,1583.52 1405.47,1582.96 1406.31,1582.22 1407,1581.33 1407.53,1580.3 1407.86,1579.16 1407.97,1577.95 1407.97,1545.87 1407.86,1544.66 1407.53,1543.52 1407,1542.5 "/>
     <polygon id="_243361704" class="fil1" points="836.488,794.932 1972.37,1930.81 1971.04,1930.88 1969.71,1930.85 1968.36,1930.72 1967,1930.49 1965.64,1930.18 1964.28,1929.76 1962.91,1929.26 1961.55,1928.67 1960.18,1927.99 1958.83,1927.23 1957.47,1926.38 1956.13,1925.46 1954.79,1924.45 1953.47,1923.37 1952.17,1922.2 1950.88,1920.97 814.994,785.088 816.285,786.322 817.592,787.483 818.913,788.567 820.247,789.573 821.592,790.502 822.944,791.347 824.304,792.11 825.667,792.787 827.032,793.379 828.399,793.881 829.763,794.293 831.123,794.612 832.478,794.838 833.826,794.968 835.163,794.999 "/>
     <polygon id="_243361296" class="fil1" points="1349.95,1147.04 2485.84,2282.92 2487.28,2284.52 2488.71,2286.23 2490.11,2288.05 2491.5,2289.97 2492.86,2291.99 2494.21,2294.11 2495.54,2296.33 2496.86,2298.64 2498.15,2301.05 2499.43,2303.54 2500.69,2306.12 2501.93,2308.79 2503.16,2311.54 2504.37,2314.38 1368.49,1178.5 1367.28,1175.66 1366.05,1172.91 1364.81,1170.24 1363.55,1167.66 1362.27,1165.16 1360.97,1162.76 1359.66,1160.45 1358.33,1158.23 1356.98,1156.11 1355.62,1154.09 1354.23,1152.17 1352.83,1150.35 1351.4,1148.64 "/>
     <polygon id="_243361320" class="fil1" points="1182.34,502.603 2318.22,1638.49 2322.27,1643.39 2326.06,1648.65 2329.62,1654.26 2332.93,1660.24 2336,1666.57 2338.83,1673.28 2341.43,1680.36 2343.79,1687.81 2345.93,1695.64 2347.83,1703.85 2349.51,1712.44 2350.97,1721.43 2352.2,1730.8 2353.22,1740.58 2354.02,1750.74 2354.61,1761.32 2354.99,1772.3 2355.16,1783.68 2355.12,1795.48 2354.88,1807.7 2354.44,1820.33 2353.8,1833.39 1217.92,697.509 1218.56,684.451 1219,671.815 1219.24,659.599 1219.28,647.8 1219.11,636.413 1218.73,625.434 1218.14,614.862 1217.34,604.693 1216.32,594.922 1215.08,585.546 1213.63,576.561 1211.95,567.967 1210.04,559.756 1207.91,551.926 1205.55,544.474 1202.95,537.397 1200.12,530.691 1197.05,524.353 1193.74,518.378 1190.18,512.764 1186.39,507.507 "/>
     <polygon id="_243361800" class="fil1" points="1217.92,697.509 2353.8,1833.39 2353.88,1834.8 2353.95,1836.2 2354.02,1837.6 2354.08,1839.01 2354.14,1840.41 2354.19,1841.81 2354.24,1843.22 2354.27,1844.62 1218.39,708.738 1218.35,707.336 1218.31,705.932 1218.26,704.528 1218.2,703.125 1218.14,701.721 1218.07,700.317 1218,698.913 "/>
     <polygon id="_243361464" class="fil1" points="1248.72,706.394 2384.6,1842.28 2385.6,1843.41 2386.54,1844.64 2387.42,1845.96 2388.24,1847.36 2388.99,1848.84 2389.68,1850.4 2390.31,1852.03 2390.86,1853.74 2391.36,1855.51 2391.78,1857.35 2392.14,1859.24 2392.43,1861.2 2392.64,1863.21 2392.79,1865.26 2392.87,1867.37 2392.88,1869.52 2392.81,1871.7 2392.67,1873.93 2392.46,1876.19 2392.17,1878.47 2391.81,1880.79 2391.37,1883.12 2390.85,1885.47 2390.26,1887.84 2389.59,1890.23 2388.84,1892.62 1252.96,756.734 1253.71,754.343 1254.38,751.962 1254.97,749.592 1255.49,747.238 1255.93,744.903 1256.29,742.59 1256.58,740.304 1256.79,738.047 1256.93,735.823 1257,733.635 1256.99,731.487 1256.91,729.382 1256.76,727.323 1256.54,725.316 1256.26,723.362 1255.9,721.464 1255.47,719.627 1254.98,717.856 1254.42,716.15 1253.8,714.516 1253.11,712.956 1252.36,711.474 1251.54,710.073 1250.66,708.758 1249.72,707.529 "/>
     <polygon id="_243361512" class="fil1" points="1252.96,756.734 2388.84,1892.62 2388.04,1894.95 2387.17,1897.23 2386.26,1899.46 2385.29,1901.63 2384.27,1903.75 2383.21,1905.8 2382.1,1907.79 2380.95,1909.71 2379.76,1911.56 2378.54,1913.35 2377.28,1915.06 2375.99,1916.69 2374.67,1918.25 2373.32,1919.73 2371.95,1921.13 2370.56,1922.44 2369.15,1923.67 2367.73,1924.81 2366.29,1925.86 2364.84,1926.82 2363.38,1927.68 2361.92,1928.44 2360.45,1929.11 2358.98,1929.67 2357.51,1930.13 2356.05,1930.48 2354.59,1930.72 2353.15,1930.86 2351.71,1930.88 2350.29,1930.78 2348.88,1930.57 2347.5,1930.23 1211.62,794.351 1213,794.685 1214.41,794.899 1215.83,794.995 1217.27,794.976 1218.71,794.842 1220.17,794.599 1221.63,794.247 1223.1,793.789 1224.57,793.227 1226.04,792.562 1227.5,791.797 1228.96,790.936 1230.41,789.98 1231.85,788.931 1233.27,787.791 1234.68,786.562 1236.07,785.248 1237.44,783.85 1238.79,782.37 1240.1,780.811 1241.4,779.174 1242.65,777.464 1243.88,775.679 1245.07,773.826 1246.22,771.904 1247.32,769.916 1248.39,767.865 1249.41,765.752 1250.37,763.581 1251.29,761.352 1252.15,759.069 "/>
     <polygon id="_243361824" class="fil1" points="1211.62,794.351 2347.5,1930.23 2346.74,1934.45 2345.97,1938.61 2345.17,1942.7 2344.34,1946.72 2343.5,1950.67 2342.65,1954.54 2341.77,1958.33 2340.89,1962.04 2340,1965.66 2339.1,1969.19 2338.19,1972.64 2337.28,1975.98 2336.37,1979.23 2335.46,1982.38 2334.55,1985.43 2333.65,1988.37 2332.76,1991.2 2331.87,1993.92 2331,1996.52 2330.14,1999.01 2329.29,2001.37 2328.47,2003.6 2327.66,2005.71 2326.88,2007.69 2326.12,2009.54 2325.39,2011.25 2324.68,2012.81 2324.01,2014.24 2323.37,2015.52 2322.77,2016.65 2322.2,2017.63 2321.67,2018.45 1185.79,882.568 1186.32,881.744 1186.89,880.766 1187.49,879.636 1188.13,878.356 1188.8,876.931 1189.5,875.363 1190.24,873.655 1191,871.81 1191.78,869.832 1192.58,867.722 1193.41,865.485 1194.25,863.124 1195.11,860.64 1195.99,858.038 1196.87,855.321 1197.77,852.49 1198.67,849.55 1199.58,846.503 1200.49,843.353 1201.4,840.102 1202.31,836.754 1203.22,833.311 1204.12,829.777 1205.01,826.153 1205.89,822.446 1206.77,818.656 1207.62,814.785 1208.46,810.839 1209.28,806.82 1210.09,802.73 1210.86,798.572 "/>
     <polygon id="_243361680" class="fil1" points="1107.83,952.899 2243.71,2088.78 2243.71,2123.14 1107.83,987.257 "/>
     <polygon id="_243362160" class="fil1" points="1107.83,987.257 2243.71,2123.14 2243.71,2148.61 1107.83,1012.73 "/>
     <polygon id="_243362520" class="fil1" points="1497.49,1227.69 2633.37,2363.57 2577.75,2624.25 1441.87,1488.37 "/>
    </g>
    <path id="_289349672" class="fil1" d="M1107.83 1012.73c169.554,74.589 218.857,113.453 239.17,131.434 7.98426,7.06418 15.065,19.0051 21.4902,34.3335l82.9666 0c25.2272,0 51.4772,22.6595 46.0796,48.9237 -0.0153543,0.0897638 -0.034252,0.179528 -0.0531496,0.269292l-55.6182 260.678c-5.62914,26.3776 -20.7118,49.1918 -46.0276,49.1918l-126.88 0 0 2.26417 133.352 0c3.11575,0 5.66221,2.72481 5.66221,6.05197l0 32.074c0,3.32953 -2.54646,6.05315 -5.66221,6.05315l-761.34 0c-3.11457,0 -5.66103,-2.72362 -5.66103,-6.05315l0 -32.074c0,-3.32717 2.54646,-6.05197 5.66103,-6.05197l138.066 0 0 -2.26417 -126.878 0c-25.3158,0 -40.3996,-22.8142 -46.0276,-49.1918l-55.6193 -260.678c-0.0188977,-0.0897638 -0.0377953,-0.179528 -0.0519685,-0.269292 -5.39764,-26.2642 20.8524,-48.9237 46.0796,-48.9237l82.9678 0c6.4252,-15.3284 13.5059,-27.2693 21.489,-34.3335 20.2441,-17.9138 71.1119,-57.5705 239.177,-131.639l0 -25.2614 0 -34.3595c-34.767,-24.4713 -67.1552,-54.4134 -77.9658,-70.3347 -5.37284,-7.90985 -17.8205,-42.5575 -25.7209,-87.6355 -14.0646,1.25787 -30.5103,-14.778 -38.2205,-38.1981 -8.413,-25.5319 -3.25512,-50.1744 11.5122,-55.0406 4.16221,-1.37008 8.64449,-1.02165 13.1244,0.757087 -10.2614,-99.8835 19.0158,-182.141 98.8631,-219.209 48.7264,-22.6205 143.078,-23.9492 205.949,-10.9902 72.4772,14.9398 98.0765,83.6977 90.2032,225.258 0.219685,3.7441 0.376772,7.48938 0.473622,11.2287 7.51182,-6.57875 15.7736,-9.43938 23.0575,-7.04056 14.7685,4.8626 19.9252,29.5051 11.511,55.0371 -8.29016,25.1788 -26.6752,41.824 -41.3445,37.617 -7.89449,45.3603 -20.426,80.2713 -25.8236,88.2166 -10.8142,15.9213 -43.1977,45.8611 -77.9611,70.3312l0 34.3583 0 25.4705z"/>
   </g>
  </g>
  <path class="fil2" d="M1024 -0.0011811c565.539,0 1024,458.462 1024,1024 0,565.539 -458.462,1024 -1024,1024 -565.539,0 -1024,-458.462 -1024,-1024 0,-565.539 458.462,-1024 1024,-1024z"/>
  <path class="fil3" d="M945.907 1010c-172.645,75.6898 -224.437,116.042 -244.909,134.158 -31.5473,27.9177 -48.9981,131.98 -67.6064,220.335l390.606 0 390.611 0c-18.6071,-88.3548 -36.0567,-192.417 -67.6064,-220.335 -20.465,-18.1158 -70.3583,-57.43 -243.012,-133.122l-158.084 -1.03583z"/>
  <path class="fil3" d="M1107.83 859.131l0 191.377c-46.1079,56.4685 -121.554,54.515 -167.658,0l0 -191.377c0,-103.335 167.658,-103.335 167.658,0z"/>
  <path class="fil4" d="M1107.83 859.131l0 128.126c-31.7256,23.1236 -62.2997,36.078 -83.83,36.078 -21.5292,0 -52.1091,-12.9543 -83.8276,-36.0733l0 -128.131c0,-103.335 167.658,-103.335 167.658,0z"/>
  <path class="fil3" d="M809.78 701.693c14.7602,-4.85906 33.5481,11.8949 41.9552,37.4303 8.41536,25.5343 3.25512,50.1756 -11.5051,55.0371 -14.7673,4.86378 -33.5563,-11.8925 -41.9622,-37.4268 -8.413,-25.5319 -3.25512,-50.1744 11.5122,-55.0406z"/>
  <path class="fil3" d="M1241.45 701.697c-14.7673,-4.8626 -33.5551,11.8913 -41.9634,37.4268 -8.40591,25.5343 -3.25394,50.1756 11.5134,55.0371 14.7662,4.86378 33.554,-11.8937 41.9611,-37.4268 8.41418,-25.5319 3.25748,-50.1744 -11.511,-55.0371z"/>
  <path class="fil3" d="M1024 515.546c-281.348,0 -180.168,339.963 -161.789,367.022 20.263,29.8418 116.336,108.946 161.789,108.946 45.4642,0 141.525,-79.1008 161.796,-108.946 18.3851,-27.0638 119.56,-367.022 -161.796,-367.022z"/>
  <path class="fil5" d="M960.315 592.262c-47.217,-31.2555 -107.753,86.5501 -123.997,182.306 -34.5485,-131.343 -12.9473,-245.648 85.4493,-291.326 48.7264,-22.6205 143.078,-23.9492 205.949,-10.9902 82.4351,16.9925 104.226,103.608 85.0961,287.781 -17.3658,-77.8701 -78.6886,-200.211 -125.127,-167.77 -38.6882,27.0272 -88.6359,25.6358 -127.37,0z"/>
  <path class="fil4" d="M933.796 852.82c61.5898,23.8217 131.158,21.4949 180.415,0 -19.6902,50.9776 -152.348,51.3898 -180.415,0z"/>
  <path class="fil6" d="M880.939 1040.28c-121.404,57.0012 -162.302,89.119 -179.941,104.727 -31.5473,27.9154 -48.9981,131.974 -67.6111,220.335l390.611 0 390.616 0c-18.6118,-88.3607 -36.0614,-192.422 -67.6111,-220.335 -17.0398,-15.0862 -54.5067,-44.8748 -166.233,-98.1142 -0.797245,0.82441 -1.89449,1.40788 -2.38347,2.47323 -30.4311,66.6308 -84.1064,104.616 -139.823,123.542 -77.2323,-15.1453 -143.552,-75.0119 -153.843,-127.39 -1.25433,-1.78228 -2.52047,-3.48898 -3.78071,-5.23819z"/>
  <path class="fil7" d="M681.19 1175.45c-19.8673,44.7579 -33.4985,121.96 -47.8028,189.892l158.573 0c-3.54803,-110.828 -3.74174,-169.774 -110.77,-189.892z"/>
  <path class="fil7" d="M1366.81 1175.45c19.8744,44.7579 33.4985,121.96 47.8028,189.892l-158.573 0c3.54095,-110.828 3.7441,-169.774 110.77,-189.892z"/>
  <path class="fil7" d="M880.939 1040.28c-11.4862,5.39174 -22.2508,10.5602 -32.3422,15.5138 29.361,61.1611 83.0233,122.772 189.966,147.015 92.8902,-27.9721 141.643,-84.8457 169.683,-142.566 -8.62796,-4.27677 -17.7638,-8.72363 -27.4772,-13.35 -0.797245,0.82441 -1.89449,1.40788 -2.38347,2.47323 -30.4311,66.6308 -84.1064,104.616 -139.823,123.542 -77.2323,-15.1453 -143.552,-75.0119 -153.843,-127.39 -1.25433,-1.78228 -2.52047,-3.48898 -3.78071,-5.23819z"/>
  <path class="fil8" d="M640.972 1539.82l761.34 0c3.11575,0 5.66221,2.72362 5.66221,6.05197l0 32.074c0,3.32953 -2.54646,6.05315 -5.66221,6.05315l-761.34 0c-3.11457,0 -5.66103,-2.72362 -5.66103,-6.05315l0 -32.074c0,-3.32835 2.54646,-6.05197 5.66103,-6.05197z"/>
  <path class="fil9" d="M1395.84 1537.56c25.3158,0 40.3985,-22.813 46.0276,-49.193l55.6182 -260.677c5.62914,-26.3788 -20.713,-49.193 -46.0264,-49.193 -257.743,0 -597.175,0 -854.918,0 -25.3134,0 -51.6556,22.8142 -46.0276,49.193l55.6193 260.677c5.62796,26.3799 20.7118,49.193 46.0276,49.193 220.662,0 523.016,0 743.679,0z"/>
  <path class="fil10" d="M1497.54 1227.42c5.39292,-26.2654 -20.8524,-48.9237 -46.0796,-48.9237 -257.743,0 -597.175,0 -854.918,0 -25.2272,0 -51.4725,22.6583 -46.0796,48.9237l947.077 0z"/>
  <rect class="fil5" x="779.038" y="1536.81" width="71.0432" height="4.41153"/>
  <rect class="fil5" x="1197.92" y="1536.81" width="71.0441" height="4.41153"/>
  <rect class="fil5" x="672.728" y="1549.37" width="82.765" height="25.079"/>
  <rect class="fil11" x="678.563" y="1553.29" width="9.04337" height="17.2392"/>
  <rect class="fil11" x="693.01" y="1553.29" width="9.04337" height="17.2392"/>
  <rect class="fil11" x="707.458" y="1553.29" width="9.04337" height="17.2392"/>
  <rect class="fil11" x="721.905" y="1553.29" width="9.04424" height="17.2392"/>
  <rect class="fil11" x="736.352" y="1553.29" width="9.04337" height="17.2392"/>
  <rect class="fil5" x="1287.79" y="1552.19" width="82.765" height="19.4406"/>
  <rect class="fil11" x="1298.97" y="1555.44" width="60.4162" height="12.9382"/>
  <path class="fil11" d="M1293.02 1559.97c1.00512,0 1.8189,0.870473 1.8189,1.94528 0,1.0748 -0.81378,1.94528 -1.8189,1.94528 -1.0063,0 -1.82008,-0.870473 -1.82008,-1.94528 0,-1.0748 0.81378,-1.94528 1.82008,-1.94528z"/>
  <path class="fil11" d="M1365.04 1559.97c1.00512,0 1.82008,0.870473 1.82008,1.94528 0,1.0748 -0.814961,1.94528 -1.82008,1.94528 -1.00512,0 -1.82008,-0.870473 -1.82008,-1.94528 0,-1.0748 0.814961,-1.94528 1.82008,-1.94528z"/>
  <path class="fil12" d="M1293.02 1559.52c0.616536,0 1.17756,0.269292 1.58032,0.701575 0.405118,0.432284 0.656693,1.0311 0.656693,1.69016 0,0.659056 -0.251575,1.25787 -0.656693,1.69016 -0.402756,0.432284 -0.96378,0.701575 -1.58032,0.701575 -0.616536,0 -1.17756,-0.269292 -1.58268,-0.701575 -0.402756,-0.432284 -0.655512,-1.0311 -0.655512,-1.69016 0,-0.659056 0.252756,-1.25787 0.655512,-1.69016 0.405118,-0.432284 0.966142,-0.701575 1.58268,-0.701575zm0.992127 1.3311c-0.252756,-0.269292 -0.604725,-0.438189 -0.992127,-0.438189 -0.388583,0 -0.740552,0.168898 -0.993308,0.438189 -0.251575,0.269292 -0.408662,0.644882 -0.408662,1.06063 0,0.414567 0.157087,0.790158 0.408662,1.06063 0.252756,0.269292 0.604725,0.437008 0.993308,0.437008 0.387402,0 0.739371,-0.167717 0.992127,-0.437008 0.251575,-0.270473 0.409843,-0.646063 0.409843,-1.06063 0,-0.415748 -0.158268,-0.791339 -0.409843,-1.06063z"/>
  <path class="fil12" d="M1365.04 1559.52c0.617717,0 1.17874,0.269292 1.5815,0.701575 0.405118,0.432284 0.656693,1.0311 0.656693,1.69016 0,0.659056 -0.251575,1.25787 -0.656693,1.69016 -0.402756,0.432284 -0.96378,0.701575 -1.5815,0.701575 -0.616536,0 -1.17756,-0.269292 -1.5815,-0.701575 -0.403937,-0.432284 -0.655512,-1.0311 -0.655512,-1.69016 0,-0.659056 0.251575,-1.25787 0.655512,-1.69016 0.403937,-0.432284 0.964961,-0.701575 1.5815,-0.701575zm0.992127 1.3311c-0.251575,-0.269292 -0.603544,-0.438189 -0.992127,-0.438189 -0.388583,0 -0.739371,0.168898 -0.992127,0.438189 -0.252756,0.269292 -0.409843,0.644882 -0.409843,1.06063 0,0.414567 0.157087,0.790158 0.409843,1.06063 0.252756,0.269292 0.603544,0.437008 0.992127,0.437008 0.388583,0 0.740552,-0.167717 0.992127,-0.437008 0.252756,-0.270473 0.411024,-0.646063 0.411024,-1.06063 0,-0.415748 -0.158268,-0.791339 -0.411024,-1.06063z"/>
  <rect class="fil11" x="790.199" y="1554.6" width="120.922" height="3.01705"/>
  <rect class="fil11" x="790.199" y="1560.4" width="120.922" height="3.01878"/>
  <rect class="fil11" x="790.199" y="1566.21" width="120.922" height="3.01705"/>
  <rect class="fil11" x="1132.17" y="1554.6" width="120.922" height="3.01705"/>
  <rect class="fil11" x="1132.17" y="1560.4" width="120.922" height="3.01878"/>
  <rect class="fil11" x="1132.17" y="1566.21" width="120.922" height="3.01705"/>
  <path class="fil11" d="M1024 1315.66c35.517,0 64.3075,23.4957 64.3075,52.48 0,28.9831 -28.7906,60.8386 -64.3075,60.8386 -35.5158,0 -64.3075,-31.8555 -64.3075,-60.8386 0,-28.9843 28.7918,-52.48 64.3075,-52.48z"/>
  <path class="fil13" d="M1122.51 694.692c55.4079,-4.68071 85.7516,8.04686 91.428,10.6854 6.84095,3.19252 5.2689,26.2217 -0.52441,30.8079 -5.79213,4.59095 -10.5272,22.9382 -24.2268,45.8764 -8.80512,14.7473 -39.639,20.9906 -66.6768,22.6595l0 -6.44174c22.1032,-1.27087 45.2552,-6.19252 55.3252,-14.8158 20.439,-17.5134 22.3866,-54.7831 7.37363,-72.1312 -7.87323,-9.11103 -35.3173,-11.648 -62.6989,-10.024l0 -6.61654zm-197.017 0l0 0 2.32087 0.207874c56.8808,5.23819 68.9989,19.0028 74.791,18.3508 6.77599,-0.766536 14.0976,-1.91811 21.0142,-1.91811 6.91536,0 14.7473,1.1185 21.7866,1.91811 5.79213,0.651969 17.902,-13.1126 74.7839,-18.3508l2.32087 -0.207874 0 6.61654 -0.282284 0.0200788c-27.4807,1.65945 -63.3249,9.58938 -70.363,29.1851 -7.03229,19.5921 6.36497,54.6142 25.7988,63.365 8.8193,3.97677 26.4709,5.44725 44.8465,4.40079l0 6.44174c-15.0295,0.922442 -28.8768,0.435827 -37.1327,-0.797245 -23.1685,-3.45 -40.5036,-38.2441 -43.6583,-48.7347 -7.10788,-23.5583 -28.3288,-23.5583 -35.4284,0 -3.16181,10.4906 -20.4969,45.2847 -43.6654,48.7347 -8.25709,1.23307 -22.1032,1.71969 -37.1327,0.797245l0 -6.44174c18.3815,1.04646 36.0331,-0.424016 44.8559,-4.40079 19.4232,-8.75079 32.8299,-43.7729 25.7894,-63.365 -7.03229,-19.5957 -42.8835,-27.5256 -70.356,-29.1851l-0.28937 -0.0200788 0 -6.61654zm-91.428 10.6854l0 0c5.68347,-2.63858 36.026,-15.3662 91.428,-10.6854l0 6.61654c-27.3721,-1.63583 -54.8197,0.922442 -62.6989,10.024 -15.0059,17.348 -13.0665,54.6178 7.37245,72.1312 10.0701,8.62323 33.2221,13.5449 55.3264,14.8158l0 6.44174c-27.039,-1.6689 -57.8729,-7.91221 -66.6709,-22.6595 -13.6961,-22.9382 -18.4335,-41.2855 -24.2256,-45.8764 -5.8004,-4.58622 -7.37245,-27.6154 -0.531496,-30.8079z"/>
  <path class="fil3" d="M862.792 711.332c7.90631,-9.13229 35.517,-11.6693 62.9882,-10.0039 27.4725,1.65945 63.3237,9.58938 70.356,29.1851 7.04056,19.5921 -6.36615,54.6142 -25.7894,63.365 -19.441,8.76261 -81.7418,5.38701 -100.182,-10.415 -20.439,-17.5134 -22.3784,-54.7831 -7.37245,-72.1312z"/>
  <path class="fil3" d="M1185.21 711.332c-7.89686,-9.13229 -35.5099,-11.6693 -62.9812,-10.0039 -27.4807,1.65945 -63.3249,9.58938 -70.363,29.1851 -7.03229,19.5921 6.36497,54.6142 25.7988,63.365 19.4315,8.76261 81.7312,5.38701 100.172,-10.415 20.439,-17.5134 22.3866,-54.7831 7.37363,-72.1312z"/>
 </g>
</svg>
